<svg width="20" height="22" viewBox="0 0 20 22" fill="none" xmlns="http://www.w3.org/2000/svg">
<path d="M1.11877 15.8666L0.710846 15.5775L0.710846 15.5775L1.11877 15.8666ZM2.42712 11.8908L1.92712 11.885V11.8908H2.42712ZM2.45458 9.48691L2.95458 9.49262V9.48691H2.45458ZM18.8882 15.8859L19.3017 15.6049L19.3017 15.6049L18.8882 15.8859ZM17.6291 11.8908L17.1291 11.8847V11.8908H17.6291ZM17.6566 9.60603L18.1566 9.61204V9.60603H17.6566ZM7 20.1C6.72386 20.1 6.5 20.3239 6.5 20.6C6.5 20.8761 6.72386 21.1 7 21.1V20.1ZM13 21.1C13.2761 21.1 13.5 20.8761 13.5 20.6C13.5 20.3239 13.2761 20.1 13 20.1V21.1ZM1.5267 16.1558C2.23463 15.157 2.92712 13.6802 2.92712 11.8908H1.92712C1.92712 13.4192 1.33443 14.6977 0.710846 15.5775L1.5267 16.1558ZM2.92709 11.8965L2.95455 9.49262L1.95461 9.4812L1.92715 11.885L2.92709 11.8965ZM19.3017 15.6049C18.7038 14.7251 18.1291 13.4363 18.1291 11.8908H17.1291C17.1291 13.686 17.7953 15.1674 18.4747 16.167L19.3017 15.6049ZM18.1291 11.8968L18.1565 9.61204L17.1566 9.60002L17.1291 11.8848L18.1291 11.8968ZM18.1566 9.60603C18.1566 4.8311 14.5368 0.900146 10 0.900146V1.90015C13.9204 1.90015 17.1566 5.317 17.1566 9.60603H18.1566ZM18.43 17.5C18.9457 17.5 19.2697 17.115 19.4029 16.7797C19.5381 16.4394 19.5555 15.9781 19.3017 15.6049L18.4747 16.167C18.4843 16.1811 18.497 16.2098 18.4996 16.2578C18.5021 16.3062 18.4933 16.3609 18.4735 16.4106C18.4534 16.4612 18.4291 16.4895 18.4161 16.5004C18.4069 16.5082 18.4135 16.5 18.43 16.5V17.5ZM2.95458 9.48691C2.95458 5.26366 6.14099 1.90015 10 1.90015V0.900146C5.52457 0.900146 1.95458 4.77777 1.95458 9.48691H2.95458ZM1.57109 16.5C1.58851 16.5 1.5953 16.5087 1.58539 16.5002C1.57165 16.4885 1.54647 16.4584 1.52605 16.4054C1.50601 16.3534 1.49744 16.2965 1.50066 16.2468C1.50385 16.1974 1.51732 16.169 1.5267 16.1558L0.710846 15.5775C0.445856 15.9514 0.460222 16.4204 0.592889 16.7648C0.723364 17.1036 1.04742 17.5 1.57109 17.5V16.5ZM18.43 16.5H1.57109V17.5H18.43V16.5ZM7 21.1H13V20.1H7V21.1Z" fill="black"/>
</svg>
