<svg width="24" height="24" viewBox="0 0 24 24" fill="none" xmlns="http://www.w3.org/2000/svg">
<path fill-rule="evenodd" clip-rule="evenodd" d="M11 3.5C6.85786 3.5 3.5 6.85786 3.5 11C3.5 15.1421 6.85786 18.5 11 18.5C15.1421 18.5 18.5 15.1421 18.5 11C18.5 6.85786 15.1421 3.5 11 3.5ZM2.5 11C2.5 6.30558 6.30558 2.5 11 2.5C15.6944 2.5 19.5 6.30558 19.5 11C19.5 15.6944 15.6944 19.5 11 19.5C6.30558 19.5 2.5 15.6944 2.5 11Z" fill="#989898"/>
<path fill-rule="evenodd" clip-rule="evenodd" d="M16.2968 16.2968C16.4921 16.1016 16.8087 16.1016 17.0039 16.2968L21.3539 20.6468C21.5492 20.8421 21.5492 21.1587 21.3539 21.3539C21.1587 21.5492 20.8421 21.5492 20.6468 21.3539L16.2968 17.0039C16.1016 16.8087 16.1016 16.4921 16.2968 16.2968Z" fill="#989898"/>
</svg>
